<svg width="512" height="512" version="1.1" xmlns="http://www.w3.org/2000/svg" desc="Created with imagetracer.js version 1.2.6" ><path fill="rgb(229,126,36)" stroke="rgb(229,126,36)" stroke-width="1" opacity="0.9921568627450981" d="M 240.5 26 L 255.5 26 L 256 26.5 L 256 255 L 38 185 Q 57.1 123.4 100.5 85 Q 128.4 58.9 166.5 43 L 200.5 32 L 221.5 28 L 239.5 27 L 240.5 26 Z " /><path fill="rgb(232,197,27)" stroke="rgb(232,197,27)" stroke-width="1" opacity="0.592156862745098" d="M 256.5 25 L 268 25.5 L 256.5 26 L 256.5 25 Z " /><path fill="rgb(232,197,27)" stroke="rgb(232,197,27)" stroke-width="1" opacity="0.592156862745098" d="M 272.5 26 L 281 26.5 L 272.5 27 L 272.5 26 Z " /><path fill="rgb(232,197,27)" stroke="rgb(232,197,27)" stroke-width="1" opacity="0.592156862745098" d="M 284.5 27 L 290 27.5 L 284.5 28 L 284.5 27 Z " /><path fill="rgb(232,197,27)" stroke="rgb(232,197,27)" stroke-width="1" opacity="0.592156862745098" d="M 291.5 28 L 296 28.5 L 291.5 29 L 291.5 28 Z " /><path fill="rgb(232,197,27)" stroke="rgb(232,197,27)" stroke-width="1" opacity="0.592156862745098" d="M 297.5 29 L 302 29.5 L 297.5 30 L 297.5 29 Z " /><path fill="rgb(232,197,27)" stroke="rgb(232,197,27)" stroke-width="1" opacity="0.592156862745098" d="M 303.5 30 L 307 30.5 L 303.5 31 L 303.5 30 Z " /><path fill="rgb(232,197,27)" stroke="rgb(232,197,27)" stroke-width="1" opacity="0.592156862745098" d="M 308.5 31 L 311 31.5 L 308.5 32 L 308.5 31 Z " /><path fill="rgb(232,197,27)" stroke="rgb(232,197,27)" stroke-width="1" opacity="0.592156862745098" d="M 312.5 32 L 315 32.5 L 312.5 33 L 312.5 32 Z " /><path fill="rgb(232,197,27)" stroke="rgb(232,197,27)" stroke-width="1" opacity="0.592156862745098" d="M 316.5 33 L 319 33.5 L 316.5 34 L 316.5 33 Z " /><path fill="rgb(232,197,27)" stroke="rgb(232,197,27)" stroke-width="1" opacity="0.592156862745098" d="M 320.5 34 L 329 36.5 L 326.5 37 L 320.5 35 L 320.5 34 Z " /><path fill="rgb(232,197,27)" stroke="rgb(232,197,27)" stroke-width="1" opacity="0.592156862745098" d="M 330.5 37 Q 390.8 57.2 428 100.5 Q 453.7 128.8 469 167.5 L 468 167.5 Q 447.9 118.1 411.5 85 Q 395 70 375.5 58 Q 356.6 45.9 332.5 39 L 330.5 37 Z " /><path fill="rgb(232,197,27)" stroke="rgb(232,197,27)" stroke-width="1" opacity="0.592156862745098" d="M 469.5 169 L 475 184.5 L 474 184.5 L 469.5 169 Z " /><path fill="rgb(239,195,25)" stroke="rgb(239,195,25)" stroke-width="1" opacity="0.996078431372549" d="M 256 26 L 283.5 27 L 284.5 28 L 307.5 31 L 329.5 37 L 352.5 46 Q 395.2 65.8 425 98.5 Q 458.2 133.6 474 185 L 256 255 L 256 26 Z " /><path fill="rgb(236,153,35)" stroke="rgb(236,153,35)" stroke-width="1" opacity="0.6705882352941176" d="M 244.5 25 L 256 25.5 L 244.5 26 L 244.5 25 Z " /><path fill="rgb(236,153,35)" stroke="rgb(236,153,35)" stroke-width="1" opacity="0.6705882352941176" d="M 231.5 26 L 240 26.5 L 231.5 27 L 231.5 26 Z " /><path fill="rgb(236,153,35)" stroke="rgb(236,153,35)" stroke-width="1" opacity="0.6705882352941176" d="M 222.5 27 L 228 27.5 L 222.5 28 L 222.5 27 Z " /><path fill="rgb(236,153,35)" stroke="rgb(236,153,35)" stroke-width="1" opacity="0.6705882352941176" d="M 216.5 28 L 221 28.5 L 216.5 29 L 216.5 28 Z " /><path fill="rgb(236,153,35)" stroke="rgb(236,153,35)" stroke-width="1" opacity="0.6705882352941176" d="M 210.5 29 L 215 29.5 L 210.5 30 L 210.5 29 Z " /><path fill="rgb(236,153,35)" stroke="rgb(236,153,35)" stroke-width="1" opacity="0.6705882352941176" d="M 205.5 30 L 209 30.5 L 201.5 32 L 201.5 31 L 205.5 30 Z " /><path fill="rgb(236,153,35)" stroke="rgb(236,153,35)" stroke-width="1" opacity="0.6705882352941176" d="M 197.5 32 L 200 32.5 L 197.5 33 L 197.5 32 Z " /><path fill="rgb(236,153,35)" stroke="rgb(236,153,35)" stroke-width="1" opacity="0.6705882352941176" d="M 193.5 33 L 196 33.5 L 193.5 34 L 193.5 33 Z " /><path fill="rgb(236,153,35)" stroke="rgb(236,153,35)" stroke-width="1" opacity="0.6705882352941176" d="M 189.5 34 L 192 34.5 L 183.5 37 L 183.5 36 L 189.5 34 Z " /><path fill="rgb(236,153,35)" stroke="rgb(236,153,35)" stroke-width="1" opacity="0.6705882352941176" d="M 180.5 37 L 182 37.5 L 172.5 41 L 172.5 40 L 180.5 37 Z " /><path fill="rgb(236,153,35)" stroke="rgb(236,153,35)" stroke-width="1" opacity="0.6705882352941176" d="M 169.5 41 L 171 41.5 Q 152.5 48 137.5 58 L 138.5 56 L 169.5 41 Z " /><path fill="rgb(236,153,35)" stroke="rgb(236,153,35)" stroke-width="1" opacity="0.6705882352941176" d="M 135.5 58 L 134.5 60 Q 107.4 75.9 87 98.5 Q 62.1 125.1 46.5 161 L 46 159.5 Q 66.8 114.3 101.5 83 Q 116.9 68.9 135.5 58 Z " /><path fill="rgb(236,153,35)" stroke="rgb(236,153,35)" stroke-width="1" opacity="0.6705882352941176" d="M 45.5 162 L 46 163.5 L 43.5 168 L 43 166.5 L 45.5 162 Z " /><path fill="rgb(236,153,35)" stroke="rgb(236,153,35)" stroke-width="1" opacity="0.6705882352941176" d="M 42.5 169 L 43 170.5 L 40.5 176 L 40 174.5 L 42.5 169 Z " /><path fill="rgb(236,153,35)" stroke="rgb(236,153,35)" stroke-width="1" opacity="0.6705882352941176" d="M 39.5 177 L 40 178.5 L 37.5 185 L 37 182.5 L 39.5 177 Z " /><path fill="rgb(236,153,35)" stroke="rgb(236,153,35)" stroke-width="1" opacity="0.6705882352941176" d="M 35.5 189 L 36 191.5 L 34.5 195 L 34 192.5 L 35.5 189 Z " /><path fill="rgb(236,153,35)" stroke="rgb(236,153,35)" stroke-width="1" opacity="0.6705882352941176" d="M 33.5 196 L 34 198.5 L 31.5 207 L 31 203.5 L 33.5 196 Z " /><path fill="rgb(236,153,35)" stroke="rgb(236,153,35)" stroke-width="1" opacity="0.6705882352941176" d="M 30.5 208 L 31 211.5 L 30 211.5 L 30.5 208 Z " /><path fill="rgb(236,153,35)" stroke="rgb(236,153,35)" stroke-width="1" opacity="0.6705882352941176" d="M 29.5 213 L 30 216.5 L 29 216.5 L 29.5 213 Z " /><path fill="rgb(236,153,35)" stroke="rgb(236,153,35)" stroke-width="1" opacity="0.6705882352941176" d="M 28.5 218 L 29 222.5 L 28 222.5 L 28.5 218 Z " /><path fill="rgb(236,153,35)" stroke="rgb(236,153,35)" stroke-width="1" opacity="0.6705882352941176" d="M 27.5 225 L 28 230.5 L 27 230.5 L 27.5 225 Z " /><path fill="rgb(236,153,35)" stroke="rgb(236,153,35)" stroke-width="1" opacity="0.6705882352941176" d="M 26.5 232 L 27 241.5 L 26 241.5 L 26.5 232 Z " /><path fill="rgb(236,153,35)" stroke="rgb(236,153,35)" stroke-width="1" opacity="0.6705882352941176" d="M 25.5 245 L 26 269.5 L 25 269.5 L 25.5 245 Z " /><path fill="rgb(236,153,35)" stroke="rgb(236,153,35)" stroke-width="1" opacity="0.6705882352941176" d="M 26.5 274 L 27 282.5 L 26 282.5 L 26.5 274 Z " /><path fill="rgb(236,153,35)" stroke="rgb(236,153,35)" stroke-width="1" opacity="0.6705882352941176" d="M 27.5 284 L 28 289.5 L 27 289.5 L 27.5 284 Z " /><path fill="rgb(236,153,35)" stroke="rgb(236,153,35)" stroke-width="1" opacity="0.6705882352941176" d="M 28.5 292 L 29 296.5 L 28 296.5 L 28.5 292 Z " /><path fill="rgb(236,153,35)" stroke="rgb(236,153,35)" stroke-width="1" opacity="0.6705882352941176" d="M 29.5 298 L 30 301.5 L 29 301.5 L 29.5 298 Z " /><path fill="rgb(236,153,35)" stroke="rgb(236,153,35)" stroke-width="1" opacity="0.6705882352941176" d="M 30.5 303 L 32 310.5 L 31 310.5 L 30.5 303 Z " /><path fill="rgb(236,153,35)" stroke="rgb(236,153,35)" stroke-width="1" opacity="0.6705882352941176" d="M 32.5 312 L 36 324.5 L 35 324.5 L 32.5 312 Z " /><path fill="rgb(236,153,35)" stroke="rgb(236,153,35)" stroke-width="1" opacity="0.6705882352941176" d="M 36.5 326 L 38 330.5 L 37 330.5 L 36.5 326 Z " /><path fill="rgb(236,153,35)" stroke="rgb(236,153,35)" stroke-width="1" opacity="0.6705882352941176" d="M 39.5 335 L 43 343.5 L 42 343.5 L 39.5 335 Z " /><path fill="rgb(236,153,35)" stroke="rgb(236,153,35)" stroke-width="1" opacity="0.6705882352941176" d="M 43.5 345 L 46 350.5 L 45 350.5 L 43.5 345 Z " /><path fill="rgb(236,153,35)" stroke="rgb(236,153,35)" stroke-width="1" opacity="0.6705882352941176" d="M 46.5 352 L 48 354.5 L 46 353.5 L 46.5 352 Z " /><path fill="rgb(236,153,35)" stroke="rgb(236,153,35)" stroke-width="1" opacity="0.6705882352941176" d="M 48.5 356 L 51 360.5 L 49 359.5 L 48.5 356 Z " /><path fill="rgb(236,153,35)" stroke="rgb(236,153,35)" stroke-width="1" opacity="0.6705882352941176" d="M 51.5 362 Q 70.9 398.6 100.5 425 L 121 441.5 L 118.5 440 Q 97.2 425.8 81 406.5 L 58 375.5 L 51.5 362 Z " /><path fill="rgb(0,0,0)" stroke="rgb(0,0,0)" stroke-width="1" opacity="0" d="M 0 0 L 512 0 L 512 512 L 0 512 L 0 0 Z M 245 25 L 244 26 L 232 26 L 231 27 L 223 27 L 206 30 L 167 42 Q 129 58 102 83 Q 67 114 46 160 L 38 180 L 31 204 L 27 225 L 26 245 L 25 246 L 25 271 L 26 272 L 27 291 L 30 307 L 37 332 Q 53 374 80 406 Q 113 444 163 467 L 186 476 L 208 482 L 225 485 L 232 485 L 233 486 L 245 486 L 246 487 L 267 487 L 268 486 L 288 485 L 305 482 L 327 476 Q 375 459 410 428 Q 445 398 466 354 L 476 329 L 482 307 L 485 284 L 486 283 L 486 271 L 487 270 L 487 246 L 486 245 L 486 234 L 485 233 L 484 219 L 480 200 L 473 177 Q 457 132 428 101 Q 395 63 346 42 Q 325 34 302 29 L 291 28 L 290 27 L 282 27 L 281 26 L 269 26 L 268 25 L 245 25 Z " /><path fill="rgb(78,184,111)" stroke="rgb(78,184,111)" stroke-width="1" opacity="0.9921568627450981" d="M 472.5 185 Q 477.8 183.3 476 188.5 L 481 203.5 L 485 225.5 L 486 244.5 L 487 245.5 L 487 269.5 L 486 270.5 L 486 282.5 L 485 283.5 L 482 306.5 L 476 328.5 L 466 353.5 Q 444.7 397.7 409.5 428 L 391.5 442 L 259 260.5 L 257 255 L 472.5 185 Z " /><path fill="rgb(241,155,31)" stroke="rgb(241,155,31)" stroke-width="1" opacity="0.996078431372549" d="M 37 185 L 255 255 L 254 258.5 L 120.5 441 Q 100.3 426.7 84 408.5 Q 55.4 377.6 39 334.5 L 32 311.5 L 28 291.5 L 27 274.5 L 26 273.5 L 26 242.5 L 27 241.5 L 27 231.5 L 28 230.5 L 29 217.5 L 37 185 Z " /><path fill="rgb(59,151,209)" stroke="rgb(59,151,209)" stroke-width="1" opacity="0.9921568627450981" d="M 255 256 Q 257.7 254.9 257 257.5 L 390 439.5 L 391 443 Q 363.1 463.3 326.5 476 L 304.5 482 L 287.5 485 L 267.5 486 L 266.5 487 L 245.5 487 L 244.5 486 L 232.5 486 L 231.5 485 L 212.5 483 L 185.5 476 Q 148.9 463.3 121 443 L 127 432.5 L 255 256 Z " /></svg>